<?xml version="1.0" encoding="utf-8"?>
<!-- Generator: Adobe Illustrator 21.1.0, SVG Export Plug-In . SVG Version: 6.00 Build 0)  -->
<svg version="1.1" id="Ebene_1" xmlns="http://www.w3.org/2000/svg" xmlns:xlink="http://www.w3.org/1999/xlink" x="0px" y="0px"
	 viewBox="0 0 792 612" style="enable-background:new 0 0 792 612;" xml:space="preserve">
<style type="text/css">
	.st0{opacity:0.3;fill:#FFFFFF;}
	.st1{fill:none;stroke:#FFFFFF;stroke-width:10;stroke-miterlimit:10;}
	.st2{fill:#FFFFFF;}
	.st3{fill:#FFFFFF;fill-opacity:0.3;stroke:#FFFFFF;stroke-width:3;stroke-miterlimit:10;}
	.st4{fill:#FFFFFF;fill-opacity:0.5;}
	.st5{fill:#FFFFFF;fill-opacity:0.3;}
	.st6{fill:none;}
	.st7{font-family:'Eurostile-Bol';}
	.st8{font-size:12px;}
	.st9{filter:url(#Adobe_OpacityMaskFilter);}
	.st10{fill:none;stroke:#000000;stroke-miterlimit:10;}
	.st11{mask:url(#SVGID_1_);fill:none;stroke:#FFFFFF;stroke-width:4;stroke-linecap:round;stroke-miterlimit:10;}
	.st12{filter:url(#Adobe_OpacityMaskFilter_1_);}
	.st13{mask:url(#SVGID_2_);fill:none;stroke:#FFFFFF;stroke-width:4;stroke-linecap:round;stroke-miterlimit:10;}
</style>
<polygon class="st0" points="478,342 461.5,377.3 331.5,377.3 315,342 "/>
<line class="st1" x1="304" y1="0" x2="304" y2="612"/>
<line class="st1" x1="489" y1="0" x2="489" y2="612"/>
<rect x="304" y="306" class="st2" width="185" height="36"/>
<rect x="315" y="342" class="st3" width="163" height="270"/>
<rect x="331.5" y="377.3" class="st4" width="130" height="153.3"/>
<polygon class="st5" points="331.5,530.7 315,612 478,612 461.5,530.7 "/>
<polygon class="st2" points="331.5,525.7 315,601 315,612 331.5,530.7 461.5,530.7 478,612 478,601 461.5,525.7 "/>
<polygon class="st2" points="331.5,342 344,377.3 355.3,377.3 347.3,342 "/>
<polygon class="st2" points="461.7,342 449.2,377.3 437.8,377.3 445.8,342 "/>
<path class="st2" d="M304,326v36h185v-36H304z M408,354.3h-24.7v-18H408V354.3z"/>
<rect x="384" y="344" class="st6" width="24" height="12.3"/>
<text transform="matrix(1 0 0 1 392.2324 352.0039)" class="st2 st7 st8">0</text>
<defs>
	<filter id="Adobe_OpacityMaskFilter" filterUnits="userSpaceOnUse" x="406" y="-2" width="4" height="310">
		<feColorMatrix  type="matrix" values="1 0 0 0 0  0 1 0 0 0  0 0 1 0 0  0 0 0 1 0"/>
	</filter>
</defs>
<mask maskUnits="userSpaceOnUse" x="406" y="-2" width="4" height="310" id="SVGID_1_">
	<g class="st9">
		<rect x="337.3" y="-41.7" class="st2" width="120" height="400.7"/>
		<g>
			<line class="st10" x1="386" y1="188.8" x2="416.7" y2="250"/>
			<line class="st10" x1="389.4" y1="152.6" x2="420.1" y2="213.7"/>
			<line class="st10" x1="392.8" y1="116.4" x2="423.5" y2="177.5"/>
			<line class="st10" x1="396.2" y1="80.2" x2="426.9" y2="141.3"/>
			<line class="st10" x1="399.6" y1="44" x2="430.3" y2="105.1"/>
			<line class="st10" x1="403" y1="7.8" x2="433.7" y2="68.9"/>
			<line class="st10" x1="382.6" y1="225" x2="413.3" y2="286.2"/>
			<line class="st10" x1="386.6" y1="182.8" x2="417.3" y2="243.9"/>
			<line class="st10" x1="390" y1="146.6" x2="420.7" y2="207.7"/>
			<line class="st10" x1="393.4" y1="110.4" x2="424.1" y2="171.5"/>
			<line class="st10" x1="396.8" y1="74.2" x2="427.5" y2="135.3"/>
			<line class="st10" x1="400.1" y1="37.9" x2="430.9" y2="99.1"/>
			<line class="st10" x1="403.5" y1="1.7" x2="434.2" y2="62.8"/>
			<line class="st10" x1="383.2" y1="219" x2="413.9" y2="280.1"/>
			<line class="st10" x1="387.1" y1="176.8" x2="417.8" y2="237.9"/>
			<line class="st10" x1="390.5" y1="140.5" x2="421.2" y2="201.7"/>
			<line class="st10" x1="393.9" y1="104.3" x2="424.6" y2="165.5"/>
			<line class="st10" x1="397.3" y1="68.1" x2="428" y2="129.2"/>
			<line class="st10" x1="400.7" y1="31.9" x2="431.4" y2="93"/>
			<line class="st10" x1="404.1" y1="-4.3" x2="434.8" y2="56.8"/>
			<line class="st10" x1="383.7" y1="213" x2="414.4" y2="274.1"/>
			<line class="st10" x1="387.7" y1="170.7" x2="418.4" y2="231.8"/>
			<line class="st10" x1="391.1" y1="134.5" x2="421.8" y2="195.6"/>
			<line class="st10" x1="394.5" y1="98.3" x2="425.2" y2="159.4"/>
			<line class="st10" x1="397.9" y1="62.1" x2="428.6" y2="123.2"/>
			<line class="st10" x1="401.3" y1="25.9" x2="432" y2="87"/>
			<line class="st10" x1="404.7" y1="-10.4" x2="435.4" y2="50.8"/>
			<line class="st10" x1="384.3" y1="206.9" x2="415" y2="268.1"/>
			<line class="st10" x1="388.3" y1="164.7" x2="419" y2="225.8"/>
			<line class="st10" x1="391.7" y1="128.5" x2="422.4" y2="189.6"/>
			<line class="st10" x1="395.1" y1="92.3" x2="425.8" y2="153.4"/>
			<line class="st10" x1="398.4" y1="56" x2="429.2" y2="117.2"/>
			<line class="st10" x1="401.8" y1="19.8" x2="432.5" y2="81"/>
			<line class="st10" x1="405.2" y1="-16.4" x2="435.9" y2="44.7"/>
			<line class="st10" x1="384.9" y1="200.9" x2="415.6" y2="262"/>
			<line class="st10" x1="388.8" y1="158.7" x2="419.5" y2="219.8"/>
			<line class="st10" x1="392.2" y1="122.4" x2="422.9" y2="183.6"/>
			<line class="st10" x1="395.6" y1="86.2" x2="426.3" y2="147.3"/>
			<line class="st10" x1="399" y1="50" x2="429.7" y2="111.1"/>
			<line class="st10" x1="402.4" y1="13.8" x2="433.1" y2="74.9"/>
			<line class="st10" x1="405.8" y1="-22.4" x2="436.5" y2="38.7"/>
			<line class="st10" x1="385.4" y1="194.9" x2="416.1" y2="256"/>
			<line class="st10" x1="379.2" y1="261.3" x2="409.9" y2="322.4"/>
			<line class="st10" x1="379.8" y1="255.2" x2="410.5" y2="316.4"/>
			<line class="st10" x1="380.3" y1="249.2" x2="411.1" y2="310.3"/>
			<line class="st10" x1="380.9" y1="243.2" x2="411.6" y2="304.3"/>
			<line class="st10" x1="381.5" y1="237.1" x2="412.2" y2="298.2"/>
			<line class="st10" x1="382" y1="231.1" x2="412.8" y2="292.2"/>
			<line class="st10" x1="378.7" y1="267.3" x2="409.4" y2="328.4"/>
		</g>
	</g>
</mask>
<line class="st11" x1="408" y1="306" x2="408" y2="0"/>
<defs>
	<filter id="Adobe_OpacityMaskFilter_1_" filterUnits="userSpaceOnUse" x="382" y="-2" width="4" height="310">
		<feColorMatrix  type="matrix" values="1 0 0 0 0  0 1 0 0 0  0 0 1 0 0  0 0 0 1 0"/>
	</filter>
</defs>
<mask maskUnits="userSpaceOnUse" x="382" y="-2" width="4" height="310" id="SVGID_2_">
	<g class="st12">
		<rect x="313.3" y="-41.7" class="st2" width="120" height="400.7"/>
		<g>
			<line class="st10" x1="362" y1="188.8" x2="392.7" y2="250"/>
			<line class="st10" x1="365.4" y1="152.6" x2="396.1" y2="213.7"/>
			<line class="st10" x1="368.8" y1="116.4" x2="399.5" y2="177.5"/>
			<line class="st10" x1="372.2" y1="80.2" x2="402.9" y2="141.3"/>
			<line class="st10" x1="375.6" y1="44" x2="406.3" y2="105.1"/>
			<line class="st10" x1="379" y1="7.8" x2="409.7" y2="68.9"/>
			<line class="st10" x1="358.6" y1="225" x2="389.3" y2="286.2"/>
			<line class="st10" x1="362.6" y1="182.8" x2="393.3" y2="243.9"/>
			<line class="st10" x1="366" y1="146.6" x2="396.7" y2="207.7"/>
			<line class="st10" x1="369.4" y1="110.4" x2="400.1" y2="171.5"/>
			<line class="st10" x1="372.8" y1="74.2" x2="403.5" y2="135.3"/>
			<line class="st10" x1="376.1" y1="37.9" x2="406.9" y2="99.1"/>
			<line class="st10" x1="379.5" y1="1.7" x2="410.2" y2="62.8"/>
			<line class="st10" x1="359.2" y1="219" x2="389.9" y2="280.1"/>
			<line class="st10" x1="363.1" y1="176.8" x2="393.8" y2="237.9"/>
			<line class="st10" x1="366.5" y1="140.5" x2="397.2" y2="201.7"/>
			<line class="st10" x1="369.9" y1="104.3" x2="400.6" y2="165.5"/>
			<line class="st10" x1="373.3" y1="68.1" x2="404" y2="129.2"/>
			<line class="st10" x1="376.7" y1="31.9" x2="407.4" y2="93"/>
			<line class="st10" x1="380.1" y1="-4.3" x2="410.8" y2="56.8"/>
			<line class="st10" x1="359.7" y1="213" x2="390.4" y2="274.1"/>
			<line class="st10" x1="363.7" y1="170.7" x2="394.4" y2="231.8"/>
			<line class="st10" x1="367.1" y1="134.5" x2="397.8" y2="195.6"/>
			<line class="st10" x1="370.5" y1="98.3" x2="401.2" y2="159.4"/>
			<line class="st10" x1="373.9" y1="62.1" x2="404.6" y2="123.2"/>
			<line class="st10" x1="377.3" y1="25.9" x2="408" y2="87"/>
			<line class="st10" x1="380.7" y1="-10.4" x2="411.4" y2="50.8"/>
			<line class="st10" x1="360.3" y1="206.9" x2="391" y2="268.1"/>
			<line class="st10" x1="364.3" y1="164.7" x2="395" y2="225.8"/>
			<line class="st10" x1="367.7" y1="128.5" x2="398.4" y2="189.6"/>
			<line class="st10" x1="371.1" y1="92.3" x2="401.8" y2="153.4"/>
			<line class="st10" x1="374.4" y1="56" x2="405.2" y2="117.2"/>
			<line class="st10" x1="377.8" y1="19.8" x2="408.5" y2="81"/>
			<line class="st10" x1="381.2" y1="-16.4" x2="411.9" y2="44.7"/>
			<line class="st10" x1="360.9" y1="200.9" x2="391.6" y2="262"/>
			<line class="st10" x1="364.8" y1="158.7" x2="395.5" y2="219.8"/>
			<line class="st10" x1="368.2" y1="122.4" x2="398.9" y2="183.6"/>
			<line class="st10" x1="371.6" y1="86.2" x2="402.3" y2="147.3"/>
			<line class="st10" x1="375" y1="50" x2="405.7" y2="111.1"/>
			<line class="st10" x1="378.4" y1="13.8" x2="409.1" y2="74.9"/>
			<line class="st10" x1="381.8" y1="-22.4" x2="412.5" y2="38.7"/>
			<line class="st10" x1="361.4" y1="194.9" x2="392.1" y2="256"/>
			<line class="st10" x1="355.2" y1="261.3" x2="385.9" y2="322.4"/>
			<line class="st10" x1="355.8" y1="255.2" x2="386.5" y2="316.4"/>
			<line class="st10" x1="356.3" y1="249.2" x2="387.1" y2="310.3"/>
			<line class="st10" x1="356.9" y1="243.2" x2="387.6" y2="304.3"/>
			<line class="st10" x1="357.5" y1="237.1" x2="388.2" y2="298.2"/>
			<line class="st10" x1="358" y1="231.1" x2="388.8" y2="292.2"/>
			<line class="st10" x1="354.7" y1="267.3" x2="385.4" y2="328.4"/>
		</g>
	</g>
</mask>
<line class="st13" x1="384" y1="306" x2="384" y2="0"/>
</svg>
